# xmcd CD database file
#
# Track frame offsets:
#	150
#	16258
#	34058
#	55740
#	71060
#	88580
#	105610
#	122010
#	139393
#	154770
#	168963
#	188110
#	206900
#	222308
#	234568
#	249735
#	266425
#	284725
#	297665
#	310155
#
# Disc length: 4399 seconds
#
# Revision: 2
# Processed by: cddbd v1.5.1PL2 Copyright (c) Steve Scherf et al.
# Submitted via: CDex 1.51
#
DISCID=35112d14
DTITLE=Various Artist - link2
DYEAR=2003
DGENRE=Pop
TTITLE0=t.A.T.u./All The Things She Said
TTITLE1=Vanessa Carlton/A Thousand Miles
TTITLE2=Mariah Carey/Through The Rain
TTITLE3=Holly Valance/Kiss Kiss
TTITLE4=Stevie Wonder/Sir Duke
TTITLE5=Faith Hill/Cry
TTITLE6=Three Dog Night/Joy To The World
TTITLE7=Abba/Dancing Queen
TTITLE8=Buggles/Video Killed The Radio Star
TTITLE9=Elvis Costello/Veronica
TTITLE10=The Style Council/Shout To The Top
TTITLE11=Michelle Branch/Goodbye To You
TTITLE12=Diana King/Summer Breezin'
TTITLE13=Dusty Springfield/Spooky
TTITLE14=Curtis Mayfield/Move On Up
TTITLE15=Olivia Newton-John/Physical
TTITLE16=Sixpence None The Richer/Don't Dream It's Over
TTITLE17=James Brown/Get up, I Feel Like Being A Sex Machine
TTITLE18=Diana Ross and The Supremes/You Can't Hurry Love
TTITLE19=Matt Bianco/What A Fool Believes
EXTD=YEAR: 2003
EXTT0=
EXTT1=
EXTT2=
EXTT3=
EXTT4=
EXTT5=
EXTT6=
EXTT7=
EXTT8=
EXTT9=
EXTT10=
EXTT11=
EXTT12=
EXTT13=
EXTT14=
EXTT15=
EXTT16=
EXTT17=
EXTT18=
EXTT19=
PLAYORDER=
